<svg width="48" height="63" viewBox="0 0 48 63" fill="none" xmlns="http://www.w3.org/2000/svg">
<path fill-rule="evenodd" clip-rule="evenodd" d="M0 0H48V63H0V0ZM32.0909 42L27.1818 47H30.8636C30.8636 51.1375 27.5623 54.5 23.5 54.5C22.3009 54.5042 21.1197 54.2034 20.0636 53.625L18.2718 55.45C19.8342 56.4628 21.648 57.0005 23.5 57C28.9245 57 33.3182 52.525 33.3182 47H37L32.0909 42ZM16.1364 47C16.1364 42.8625 19.4377 39.5 23.5 39.5C24.7395 39.5 25.9177 39.8125 26.9364 40.375L28.7282 38.55C27.1658 37.5372 25.352 36.9995 23.5 37C18.0755 37 13.6818 41.475 13.6818 47H10L14.9091 52L19.8182 47H16.1364ZM41 7H7V11H41V7ZM7 15H41V19H7V15ZM24 23H7V27H24V23Z" fill="black"/>
</svg>
