<svg width="48" height="63" viewBox="0 0 48 63" fill="none" xmlns="http://www.w3.org/2000/svg">
<path fill-rule="evenodd" clip-rule="evenodd" d="M0 0H48V63H0V0ZM32.0908 42L27.1816 47H30.8638C30.8638 51.1375 27.5625 54.5 23.5 54.5C22.3008 54.5042 21.1196 54.2034 20.0635 53.625L18.272 55.45C19.8345 56.4629 21.6479 57.0005 23.5 57C28.9243 57 33.3184 52.5249 33.3184 47H37L32.0908 42ZM16.1362 47C16.1362 42.8625 19.4375 39.5 23.5 39.5C24.7397 39.5 25.918 39.8125 26.9365 40.375L28.728 38.55C27.1655 37.5371 25.3521 36.9995 23.5 37C18.0757 37 13.6816 41.4751 13.6816 47H10L14.9092 52L19.8184 47H16.1362ZM41 7H7V11H41V7ZM7 15H41V19H7V15ZM24 23H7V27H24V23Z" fill="#EB5757"/>
</svg>
